<svg version="1.1" viewBox="0.0 0.0 960.0 720.0" fill="none" stroke="none" stroke-linecap="square" stroke-miterlimit="10" xmlns:xlink="http://www.w3.org/1999/xlink" xmlns="http://www.w3.org/2000/svg"><clipPath id="p.0"><path d="m0 0l960.0 0l0 720.0l-960.0 0l0 -720.0z" clip-rule="nonzero"/></clipPath><g clip-path="url(#p.0)"><path fill="#000000" fill-opacity="0.0" d="m0 0l960.0 0l0 720.0l-960.0 0z" fill-rule="evenodd"/><path fill="#f3f3f3" d="m169.84251 360.0l0 0c0 -167.85107 138.86223 -303.92126 310.15747 -303.92126l0 0c82.25885 0 161.14862 32.020184 219.31445 89.01648c58.165833 56.996292 90.84302 134.29987 90.84302 214.90479l0 0c0 167.85107 -138.86224 303.92126 -310.15747 303.92126l0 0c-171.29526 0 -310.15747 -136.07019 -310.15747 -303.92126z" fill-rule="evenodd"/><path stroke="#666666" stroke-width="4.0" stroke-linejoin="round" stroke-linecap="butt" d="m169.84251 360.0l0 0c0 -167.85107 138.86223 -303.92126 310.15747 -303.92126l0 0c82.25885 0 161.14862 32.020184 219.31445 89.01648c58.165833 56.996292 90.84302 134.29987 90.84302 214.90479l0 0c0 167.85107 -138.86224 303.92126 -310.15747 303.92126l0 0c-171.29526 0 -310.15747 -136.07019 -310.15747 -303.92126z" fill-rule="evenodd"/><path fill="#d9d9d9" d="m224.29921 419.1811l0 0c0 -135.16626 114.481155 -244.74014 255.70079 -244.74014l0 0c67.81604 0 132.85455 25.78505 180.80774 71.682724c47.953247 45.89769 74.89307 108.1483 74.89307 173.05742l0 0c0 135.16626 -114.48114 244.74017 -255.7008 244.74017l0 0c-141.21964 0 -255.70079 -109.57391 -255.70079 -244.74017z" fill-rule="evenodd"/><path stroke="#666666" stroke-width="4.0" stroke-linejoin="round" stroke-linecap="butt" d="m224.29921 419.1811l0 0c0 -135.16626 114.481155 -244.74014 255.70079 -244.74014l0 0c67.81604 0 132.85455 25.78505 180.80774 71.682724c47.953247 45.89769 74.89307 108.1483 74.89307 173.05742l0 0c0 135.16626 -114.48114 244.74017 -255.7008 244.74017l0 0c-141.21964 0 -255.70079 -109.57391 -255.70079 -244.74017z" fill-rule="evenodd"/><path fill="#666666" d="m293.07086 481.1496l0 0c0 -100.941986 83.69104 -182.77164 186.92914 -182.77164l0 0c49.57666 0 97.12286 19.256226 132.17883 53.532562c35.05603 34.276337 54.750305 80.765015 54.750305 129.23907l0 0c0 100.94202 -83.69104 182.77167 -186.92914 182.77167l0 0c-103.2381 0 -186.92914 -81.82965 -186.92914 -182.77167z" fill-rule="evenodd"/><path stroke="#434343" stroke-width="3.0" stroke-linejoin="round" stroke-linecap="butt" d="m293.07086 481.1496l0 0c0 -100.941986 83.69104 -182.77164 186.92914 -182.77164l0 0c49.57666 0 97.12286 19.256226 132.17883 53.532562c35.05603 34.276337 54.750305 80.765015 54.750305 129.23907l0 0c0 100.94202 -83.69104 182.77167 -186.92914 182.77167l0 0c-103.2381 0 -186.92914 -81.82965 -186.92914 -182.77167z" fill-rule="evenodd"/><path fill="#000000" fill-opacity="0.0" d="m281.07086 81.66404l397.85828 0l0 78.92913l-397.85828 0z" fill-rule="evenodd"/><path fill="#000000" d="m448.71417 131.68861l-5.015625 -21.000008l4.34375 0l3.171875 14.421875l3.828125 -14.421875l5.046875 0l3.671875 14.671875l3.234375 -14.671875l4.265625 0l-5.109375 21.000008l-4.484375 0l-4.1875 -15.687508l-4.171875 15.687508l-4.59375 0zm23.213837 -7.8125076q0 -2.015625 0.984375 -3.890625q1.0 -1.875 2.8125 -2.859375q1.8125 -0.984375 4.03125 -0.984375q3.453125 0 5.65625 2.25q2.21875 2.234375 2.21875 5.65625q0 3.4375 -2.234375 5.7187576q-2.21875 2.265625 -5.609375 2.265625q-2.078125 0 -3.984375 -0.9375q-1.890625 -0.953125 -2.890625 -2.78125q-0.984375 -1.8281326 -0.984375 -4.4375076zm4.125 0.203125q0 2.265625 1.078125 3.46875q1.078125 1.2031326 2.640625 1.2031326q1.578125 0 2.640625 -1.2031326q1.078125 -1.203125 1.078125 -3.484375q0 -2.234375 -1.078125 -3.4375q-1.0625 -1.203125 -2.640625 -1.203125q-1.5625 0 -2.640625 1.203125q-1.078125 1.203125 -1.078125 3.453125zm18.571045 7.6093826l-4.015625 0l0 -15.203133l3.734375 0l0 2.15625q0.953125 -1.53125 1.71875 -2.015625q0.765625 -0.484375 1.75 -0.484375q1.375 0 2.640625 0.75l-1.234375 3.515625q-1.03125 -0.65625 -1.890625 -0.65625q-0.859375 0 -1.453125 0.46875q-0.578125 0.453125 -0.921875 1.671875q-0.328125 1.21875 -0.328125 5.09375l0 4.7031326zm7.4289856 0l0 -21.000008l4.015625 0l0 11.140625l4.71875 -5.34375l4.953125 0l-5.203125 5.546875l5.578125 9.656258l-4.34375 0l-3.828125 -6.8281326l-1.875 1.953125l0 4.8750076l-4.015625 0z" fill-rule="nonzero"/><path fill="#000000" fill-opacity="0.0" d="m95.07087 211.84251l769.8583 0l0 78.92915l-769.8583 0z" fill-rule="evenodd"/><path fill="#000000" d="m394.5654 260.90707l0 -19.07811l8.109375 0q3.0625 0 4.4375 0.515625q1.390625 0.515625 2.21875 1.828125q0.84375 1.3125 0.84375 3.0q0 2.15625 -1.265625 3.5625q-1.265625 1.390625 -3.78125 1.75q1.25 0.734375 2.0625 1.609375q0.8125 0.859375 2.203125 3.0937347l2.328125 3.71875l-4.609375 0l-2.78125 -4.15625q-1.484375 -2.2187347 -2.03125 -2.7968597q-0.546875 -0.578125 -1.171875 -0.796875q-0.609375 -0.21875 -1.921875 -0.21875l-0.78125 0l0 7.9687347l-3.859375 0zm3.859375 -11.01561l2.84375 0q2.765625 0 3.453125 -0.234375q0.703125 -0.234375 1.09375 -0.796875q0.390625 -0.578125 0.390625 -1.4375q0 -0.96875 -0.515625 -1.546875q-0.515625 -0.59375 -1.453125 -0.75q-0.46875 -0.078125 -2.8125 -0.078125l-3.0 0l0 4.84375zm23.35965 6.6093597l3.640625 0.625q-0.703125 2.0 -2.21875 3.046875q-1.515625 1.046875 -3.796875 1.046875q-3.609375 0 -5.328125 -2.359375q-1.375 -1.890625 -1.375 -4.7656097q0 -3.4375 1.796875 -5.375q1.796875 -1.953125 4.546875 -1.953125q3.078125 0 4.859375 2.046875q1.78125 2.03125 1.703125 6.234375l-9.15625 0q0.046875 1.6249847 0.890625 2.5312347q0.84375 0.90625 2.109375 0.90625q0.859375 0 1.4375 -0.46875q0.59375 -0.46875 0.890625 -1.515625zm0.203125 -3.6874847q-0.03125 -1.59375 -0.8125 -2.421875q-0.78125 -0.828125 -1.90625 -0.828125q-1.203125 0 -1.984375 0.875q-0.78125 0.875 -0.765625 2.375l5.46875 0zm6.606201 8.093735l0 -19.07811l3.671875 0l0 19.07811l-3.671875 0zm10.14032 -9.60936l-3.3125 -0.59375q0.5625 -2.0 1.921875 -2.96875q1.375 -0.96875 4.0625 -0.96875q2.453125 0 3.640625 0.578125q1.203125 0.578125 1.6875 1.484375q0.5 0.890625 0.5 3.265625l-0.046875 4.2656097q0 1.828125 0.171875 2.703125q0.171875 0.859375 0.65625 1.84375l-3.609375 0q-0.140625 -0.359375 -0.359375 -1.078125q-0.09375 -0.328125 -0.125 -0.4375q-0.9375 0.921875 -2.015625 1.375q-1.0625 0.453125 -2.265625 0.453125q-2.140625 0 -3.375 -1.15625q-1.21875 -1.15625 -1.21875 -2.9375q0 -1.1718597 0.546875 -2.0781097q0.5625 -0.921875 1.578125 -1.40625q1.015625 -0.484375 2.90625 -0.859375q2.5625 -0.484375 3.5625 -0.890625l0 -0.375q0 -1.046875 -0.53125 -1.5q-0.515625 -0.453125 -1.96875 -0.453125q-0.96875 0 -1.515625 0.390625q-0.546875 0.390625 -0.890625 1.34375zm4.90625 2.96875q-0.703125 0.234375 -2.234375 0.5625q-1.515625 0.328125 -1.984375 0.640625q-0.71875 0.5 -0.71875 1.2812347q0 0.765625 0.5625 1.328125q0.578125 0.5625 1.46875 0.5625q0.984375 0 1.890625 -0.65625q0.65625 -0.484375 0.859375 -1.203125q0.15625 -0.46875 0.15625 -1.7812347l0 -0.734375zm13.528076 -7.1875l0 2.921875l-2.5 0l0 5.5625q0 1.7031097 0.0625 1.9843597q0.078125 0.28125 0.328125 0.46875q0.265625 0.171875 0.625 0.171875q0.515625 0 1.46875 -0.359375l0.3125 2.84375q-1.265625 0.546875 -2.890625 0.546875q-0.984375 0 -1.78125 -0.328125q-0.796875 -0.328125 -1.171875 -0.859375q-0.359375 -0.53125 -0.5 -1.421875q-0.125 -0.640625 -0.125 -2.578125l0 -6.0312347l-1.671875 0l0 -2.921875l1.671875 0l0 -2.734375l3.671875 -2.140625l0 4.875l2.5 0zm2.5329895 -1.875l0 -3.375l3.671875 0l0 3.375l-3.671875 0zm0 15.70311l0 -13.82811l3.671875 0l0 13.82811l-3.671875 0zm6.5622253 -7.1093597q0 -1.8125 0.890625 -3.515625q0.90625 -1.71875 2.546875 -2.609375q1.65625 -0.90625 3.6875 -0.90625q3.140625 0 5.140625 2.046875q2.0 2.03125 2.0 5.140625q0 3.1406097 -2.03125 5.2031097q-2.015625 2.0625 -5.078125 2.0625q-1.90625 0 -3.640625 -0.859375q-1.71875 -0.859375 -2.625 -2.515625q-0.890625 -1.65625 -0.890625 -4.0468597zm3.75 0.203125q0 2.0468597 0.96875 3.1406097q0.984375 1.09375 2.421875 1.09375q1.421875 0 2.390625 -1.09375q0.984375 -1.09375 0.984375 -3.1718597q0 -2.03125 -0.984375 -3.125q-0.96875 -1.09375 -2.390625 -1.09375q-1.4375 0 -2.421875 1.09375q-0.96875 1.09375 -0.96875 3.15625zm25.95456 6.9062347l-3.65625 0l0 -7.0468597q0 -2.25 -0.234375 -2.90625q-0.234375 -0.65625 -0.765625 -1.015625q-0.515625 -0.375 -1.265625 -0.375q-0.953125 0 -1.703125 0.53125q-0.75 0.515625 -1.03125 1.375q-0.28125 0.859375 -0.28125 3.171875l0 6.2656097l-3.65625 0l0 -13.82811l3.390625 0l0 2.03125q1.8125 -2.34375 4.5625 -2.34375q1.203125 0 2.203125 0.4375q1.015625 0.4375 1.515625 1.125q0.515625 0.671875 0.71875 1.53125q0.203125 0.859375 0.203125 2.453125l0 8.593735zm2.4233093 -3.9375l3.671875 -0.5625q0.234375 1.0625 0.953125 1.625q0.71875 0.546875 2.0 0.546875q1.421875 0 2.140625 -0.515625q0.46875 -0.375 0.46875 -0.984375q0 -0.421875 -0.25 -0.6875q-0.28125 -0.265625 -1.234375 -0.48435974q-4.421875 -0.96875 -5.609375 -1.78125q-1.640625 -1.125 -1.640625 -3.109375q0 -1.796875 1.421875 -3.015625q1.421875 -1.234375 4.40625 -1.234375q2.828125 0 4.203125 0.9375q1.390625 0.921875 1.90625 2.71875l-3.4375 0.640625q-0.234375 -0.796875 -0.859375 -1.21875q-0.609375 -0.4375 -1.75 -0.4375q-1.4375 0 -2.0625 0.390625q-0.421875 0.296875 -0.421875 0.75q0 0.390625 0.359375 0.65625q0.5 0.375 3.421875 1.046875q2.921875 0.65625 4.078125 1.609375q1.140625 0.984375 1.140625 2.7187347q0 1.90625 -1.59375 3.28125q-1.578125 1.359375 -4.6875 1.359375q-2.828125 0 -4.484375 -1.140625q-1.640625 -1.15625 -2.140625 -3.109375zm19.762451 -15.14061l0 7.015625q1.765625 -2.078125 4.21875 -2.078125q1.265625 0 2.28125 0.46875q1.015625 0.46875 1.53125 1.203125q0.515625 0.734375 0.703125 1.625q0.1875 0.875 0.1875 2.734375l0 8.10936l-3.65625 0l0 -7.2968597q0 -2.171875 -0.21875 -2.75q-0.203125 -0.59375 -0.734375 -0.9375q-0.515625 -0.359375 -1.3125 -0.359375q-0.90625 0 -1.625 0.453125q-0.71875 0.4375 -1.046875 1.328125q-0.328125 0.890625 -0.328125 2.640625l0 6.9218597l-3.65625 0l0 -19.07811l3.65625 0zm12.626465 3.375l0 -3.375l3.671875 0l0 3.375l-3.671875 0zm0 15.70311l0 -13.82811l3.671875 0l0 13.82811l-3.671875 0zm7.312195 -13.82811l3.40625 0l0 2.03125q0.671875 -1.03125 1.796875 -1.6875q1.125 -0.65625 2.515625 -0.65625q2.40625 0 4.078125 1.890625q1.6875 1.890625 1.6875 5.265625q0 3.4531097 -1.703125 5.3749847q-1.6875 1.921875 -4.09375 1.921875q-1.140625 0 -2.078125 -0.453125q-0.921875 -0.453125 -1.953125 -1.5625l0 6.96875l-3.65625 0l0 -19.093735zm3.609375 6.6875q0 2.3281097 0.921875 3.4374847q0.9375 1.109375 2.265625 1.109375q1.265625 0 2.109375 -1.015625q0.859375 -1.03125 0.859375 -3.3593597q0 -2.171875 -0.875 -3.21875q-0.875 -1.0625 -2.171875 -1.0625q-1.328125 0 -2.21875 1.046875q-0.890625 1.03125 -0.890625 3.0625zm11.48584 3.2031097l3.671875 -0.5625q0.234375 1.0625 0.953125 1.625q0.71875 0.546875 2.0 0.546875q1.421875 0 2.140625 -0.515625q0.46875 -0.375 0.46875 -0.984375q0 -0.421875 -0.25 -0.6875q-0.28125 -0.265625 -1.234375 -0.48435974q-4.421875 -0.96875 -5.609375 -1.78125q-1.640625 -1.125 -1.640625 -3.109375q0 -1.796875 1.421875 -3.015625q1.421875 -1.234375 4.40625 -1.234375q2.828125 0 4.203125 0.9375q1.390625 0.921875 1.90625 2.71875l-3.4375 0.640625q-0.234375 -0.796875 -0.859375 -1.21875q-0.609375 -0.4375 -1.75 -0.4375q-1.4375 0 -2.0625 0.390625q-0.421875 0.296875 -0.421875 0.75q0 0.390625 0.359375 0.65625q0.5 0.375 3.421875 1.046875q2.921875 0.65625 4.078125 1.609375q1.140625 0.984375 1.140625 2.7187347q0 1.90625 -1.59375 3.28125q-1.578125 1.359375 -4.6875 1.359375q-2.828125 0 -4.484375 -1.140625q-1.640625 -1.15625 -2.140625 -3.109375z" fill-rule="nonzero"/><path fill="#000000" fill-opacity="0.0" d="m88.15748 441.68503l783.68506 0l0 78.92917l-783.68506 0z" fill-rule="evenodd"/><path fill="#f3f3f3" d="m454.14844 495.5496l0 -12.046875l-10.5 -16.59375l6.78125 0l6.734375 11.328125l6.609375 -11.328125l6.65625 0l-10.53125 16.625l0 12.015625l-5.75 0zm14.8828125 -10.671875q0 -2.734375 1.34375 -5.28125q1.34375 -2.5625 3.8125 -3.90625q2.46875 -1.359375 5.515625 -1.359375q4.71875 0 7.71875 3.0625q3.015625 3.0625 3.015625 7.71875q0 4.71875 -3.046875 7.8125q-3.03125 3.09375 -7.640625 3.09375q-2.859375 0 -5.453125 -1.28125q-2.578125 -1.296875 -3.921875 -3.78125q-1.34375 -2.5 -1.34375 -6.078125zm5.625 0.296875q0 3.09375 1.453125 4.734375q1.46875 1.640625 3.625 1.640625q2.140625 0 3.59375 -1.640625q1.453125 -1.640625 1.453125 -4.765625q0 -3.046875 -1.453125 -4.6875q-1.453125 -1.640625 -3.59375 -1.640625q-2.15625 0 -3.625 1.640625q-1.453125 1.640625 -1.453125 4.71875zm33.73047 10.375l0 -3.109375q-1.140625 1.65625 -2.984375 2.625q-1.84375 0.953125 -3.890625 0.953125q-2.09375 0 -3.765625 -0.921875q-1.65625 -0.921875 -2.40625 -2.578125q-0.734375 -1.65625 -0.734375 -4.59375l0 -13.125l5.5 0l0 9.53125q0 4.375 0.296875 5.375q0.296875 0.984375 1.09375 1.5625q0.8125 0.5625 2.046875 0.5625q1.40625 0 2.515625 -0.765625q1.109375 -0.765625 1.515625 -1.90625q0.421875 -1.15625 0.421875 -5.609375l0 -8.75l5.484375 0l0 20.75l-5.09375 0z" fill-rule="nonzero"/></g></svg>